<svg viewBox="0 0 38 38" fill="none" xmlns="http://www.w3.org/2000/svg">
<path d="M26.2192 17.1617L15.5522 6.76128C15.1792 6.39776 14.7041 6.15021 14.1869 6.04993C13.6696 5.94965 13.1335 6.00114 12.6463 6.19789C12.1591 6.39464 11.7426 6.72782 11.4496 7.1553C11.1566 7.58279 11.0001 8.08538 11 8.59956V29.4004C11.0001 29.9146 11.1566 30.4172 11.4496 30.8447C11.7426 31.2722 12.1591 31.6054 12.6463 31.8021C13.1335 31.9989 13.6696 32.0503 14.1869 31.9501C14.7041 31.8498 15.1792 31.6022 15.5522 31.2387L26.2192 20.8383C26.7191 20.3507 27 19.6895 27 19C27 18.3105 26.7191 17.6493 26.2192 17.1617Z" fill="currentColor"/>
</svg>
