<svg viewBox="0 0 38 38" fill="none" xmlns="http://www.w3.org/2000/svg">
<path d="M11.7808 20.8383L22.4478 31.2387C22.8208 31.6022 23.2959 31.8498 23.8131 31.9501C24.3304 32.0503 24.8665 31.9989 25.3537 31.8021C25.8409 31.6054 26.2574 31.2722 26.5504 30.8447C26.8434 30.4172 26.9999 29.9146 27 29.4004V8.59956C26.9999 8.08538 26.8434 7.58279 26.5504 7.1553C26.2574 6.72782 25.8409 6.39464 25.3537 6.19789C24.8665 6.00114 24.3304 5.94965 23.8131 6.04993C23.2959 6.15021 22.8208 6.39776 22.4478 6.76128L11.7808 17.1617C11.2809 17.6493 11 18.3105 11 19C11 19.6895 11.2809 20.3507 11.7808 20.8383Z" fill="currentColor"/>
</svg>
