<svg viewBox="0 0 38 38" fill="none" xmlns="http://www.w3.org/2000/svg">
<path d="M26.5716 20.617L18.3214 12.4069M30.1074 30H14.7856M18.2475 28.9008L28.4643 18.7335C29.8646 17.3401 30.5647 16.6434 30.827 15.84C31.0577 15.1333 31.0577 14.372 30.827 13.6653C30.5647 12.8619 29.8646 12.1652 28.4643 10.7718L28.2148 10.5234C26.8145 9.12998 26.1144 8.43325 25.307 8.17222C24.5969 7.94259 23.8319 7.94259 23.1218 8.17222C22.3145 8.43325 21.6144 9.12998 20.2141 10.5234L10.5357 20.1548C9.13549 21.5483 8.43537 22.245 8.17306 23.0484C7.94231 23.755 7.94231 24.5163 8.17306 25.223C8.43537 26.0264 9.13549 26.7231 10.5357 28.1165L11.3238 28.9008C11.7315 29.3065 11.9353 29.5093 12.1732 29.6544C12.3841 29.783 12.614 29.8778 12.8545 29.9353C13.1258 30 13.4141 30 13.9906 30H15.5806C16.1571 30 16.4454 30 16.7167 29.9353C16.9572 29.8778 17.1872 29.783 17.398 29.6544C17.636 29.5093 17.8398 29.3065 18.2475 28.9008Z" stroke="currentColor" stroke-width="3" stroke-linecap="round" stroke-linejoin="round"/>
</svg>
