<svg width="38" height="38" viewBox="0 0 38 38" fill="none" xmlns="http://www.w3.org/2000/svg">
<g clip-path="url(#clip0_15_270)">
<path d="M21.2739 4.63435C22.3869 3.52135 24.1914 3.52135 25.3044 4.63435L33.3653 12.6954C34.4783 13.8083 34.4783 15.6129 33.3653 16.7259L17.7913 32.3H27.5498C28.0744 32.3 28.4998 32.7254 28.4998 33.25C28.4998 33.7746 28.0744 34.2 27.5498 34.2H14.857C14.0784 34.2409 13.2863 33.9638 12.6916 33.3691L4.63056 25.3082C3.51758 24.1952 3.51758 22.3907 4.63056 21.2777L21.2739 4.63435ZM23.9609 5.97784C23.5898 5.60685 22.9885 5.60685 22.6174 5.97784L10.5226 18.0726L19.9272 27.4772L32.0218 15.3824C32.3929 15.0114 32.3929 14.4099 32.0218 14.0389L23.9609 5.97784ZM18.5836 28.8207L9.1791 19.4161L5.97407 22.6212C5.60307 22.9921 5.60307 23.5936 5.97407 23.9647L14.0351 32.0256C14.4061 32.3967 15.0076 32.3967 15.3786 32.0256L18.5836 28.8207Z" fill="white"/>
</g>
<defs>
<clipPath id="clip0_15_270">
<rect width="38" height="38" fill="white"/>
</clipPath>
</defs>
</svg>
