<svg width="38" height="38" viewBox="0 0 38 38" fill="none" xmlns="http://www.w3.org/2000/svg">
<g clip-path="url(#clip0_15_279)">
<path d="M12.6667 30.0833C14.4083 30.0833 15.8333 28.6583 15.8333 26.9167V11.0833C15.8333 9.34167 14.4083 7.91667 12.6667 7.91667C10.925 7.91667 9.5 9.34167 9.5 11.0833V26.9167C9.5 28.6583 10.925 30.0833 12.6667 30.0833ZM22.1667 11.0833V26.9167C22.1667 28.6583 23.5917 30.0833 25.3333 30.0833C27.075 30.0833 28.5 28.6583 28.5 26.9167V11.0833C28.5 9.34167 27.075 7.91667 25.3333 7.91667C23.5917 7.91667 22.1667 9.34167 22.1667 11.0833Z" fill="white"/>
</g>
<defs>
<clipPath id="clip0_15_279">
<rect width="38" height="38" fill="white"/>
</clipPath>
</defs>
</svg>
